<?xml version="1.0" encoding="utf-8"?>
<!-- Generator: Adobe Illustrator 27.3.1, SVG Export Plug-In . SVG Version: 6.00 Build 0)  -->
<svg version="1.1" id="Layer_1" xmlns="http://www.w3.org/2000/svg" xmlns:xlink="http://www.w3.org/1999/xlink" x="0px" y="0px"
	 viewBox="0 0 1080 1080" style="enable-background:new 0 0 1080 1080;" xml:space="preserve">
<style type="text/css">
	.st0{fill-rule:evenodd;clip-rule:evenodd;fill:#3E302F;}
</style>
<path id="Donation" class="st0" d="M403.64,763.52c-40.11-0.74-78.22,17.48-102.82,49.18l-58.12,71.53
	c-11.34,10.31-17.83,24.91-17.88,40.23c-0.82,33.74,25.86,61.76,59.6,62.59c1,0.02,1.99,0.02,2.99,0h683.99
	c33.74,0.82,61.76-25.86,62.59-59.6c0.02-1,0.02-1.99,0-2.99c-0.34-14.45-5.01-28.47-13.41-40.23l-58.12-71.53
	c-28.77-31.26-69.28-49.08-111.76-49.18H403.64z M493.05,888.69c-0.27-19.48,15.3-35.49,34.77-35.76c0.33,0,0.66,0,0.99,0h201.17
	c19.75,0,35.76,16.01,35.76,35.76c0,19.75-16.01,35.76-35.76,35.76H528.81C506.46,919.98,493.05,906.57,493.05,888.69z
	 M162.23,92.94h366.58c132.17,7.45,258.74,55.89,362.11,138.59c13.41,8.94,26.82,22.35,49.18,40.23l26.82,22.35
	c10.59,17.63,16.72,37.58,17.88,58.12c-1.21,41.46-34.54,74.79-76,76h-4.47c-15.94,0.36-31.59-4.33-44.71-13.41l-53.65-40.23
	c-18.74-16.46-39.83-30.02-62.59-40.23l-40.23-13.41c-26.55-4.65-53.56-6.15-80.47-4.47H439.4c-18.1-1.66-34.11,11.67-35.76,29.77
	c-0.18,1.99-0.18,4,0,6c-0.27,19.48,15.3,35.49,34.77,35.76c0.33,0,0.66,0,0.99,0h111.76c44.44,0,80.47,36.03,80.47,80.47
	s-36.03,80.47-80.47,80.47l0,0H448.35c-125.72-0.18-248.02-40.95-348.7-116.23l-17.88-22.35l-4.47-4.47
	C57.59,391.1,46,367.91,46,343.29V177.88c1.37-12.27,4.38-24.3,8.94-35.76c8.57-17.51,22.72-31.67,40.23-40.23
	c11.3-5.06,23.41-8.09,35.76-8.94H162.23z M551.17,607.05c81.18-0.7,146.82-66.34,147.53-147.53c0.19-36.83-14.29-72.22-40.23-98.35
	c84.72,18.14,145.82,92.2,147.53,178.82c-0.29,98.64-80.18,178.53-178.82,178.82c-73.02,0.81-138.91-43.71-165.41-111.76H551.17z"/>
</svg>
