<svg xmlns="http://www.w3.org/2000/svg" width="19.196" height="26.318" viewBox="0 0 19.196 26.318">
  <path id="Quran" d="M16.421,8.01a1.074,1.074,0,0,1-1.129-1.144,1.129,1.129,0,1,1,2.258,0A1.074,1.074,0,0,1,16.421,8.01ZM12.356,6.065a1.238,1.238,0,0,1,.113,1.6,2.308,2.308,0,0,0,0,3.089,2.27,2.27,0,0,0,3.162.229,1.088,1.088,0,0,1,1.581.114,1.122,1.122,0,0,1-.113,1.6,4.427,4.427,0,0,1-6.323-.343,4.593,4.593,0,0,1,0-6.065A.961.961,0,0,1,12.356,6.065ZM16.647,0H8.178A3.279,3.279,0,0,0,6.371.458,3.986,3.986,0,0,0,4.452,2.4,14.387,14.387,0,0,0,4,4.234V20.825a3.393,3.393,0,0,0,.452,1.831A3.985,3.985,0,0,0,6.371,24.6a8.368,8.368,0,0,0,1.807.458h8.243V22.771H8.4a1.445,1.445,0,0,1-.9-.229,2.231,2.231,0,0,1-1.016-1.03,5.248,5.248,0,0,1-.226-.915V18.766c.113,0,.113.114.226.114a8.368,8.368,0,0,0,1.807.458H19.244a1.748,1.748,0,0,1,1.694,1.716h0a1.614,1.614,0,0,1-1.129,1.6v-.915a1.129,1.129,0,1,0-2.258,0v3.433a1.129,1.129,0,1,0,2.258,0h0a3.959,3.959,0,0,0,3.387-4V4.348a3.393,3.393,0,0,0-.452-1.831A3.985,3.985,0,0,0,20.824.572,8.368,8.368,0,0,0,19.018.114,14.959,14.959,0,0,0,16.647,0Z" transform="translate(-4)" fill="#d49b63" fill-rule="evenodd"/>
</svg>
