<?xml version="1.0" encoding="utf-8"?>
<!-- Generator: Adobe Illustrator 27.3.1, SVG Export Plug-In . SVG Version: 6.00 Build 0)  -->
<svg version="1.1" id="Layer_1" xmlns="http://www.w3.org/2000/svg" xmlns:xlink="http://www.w3.org/1999/xlink" x="0px" y="0px"
	 viewBox="0 0 1080 1080" style="enable-background:new 0 0 1080 1080;" xml:space="preserve">
<style type="text/css">
	.st0{fill:none;}
	.st1{fill:#FFFFFF;}
</style>
<g id="Icon_-_Profile" transform="translate(311 44)">
	<rect id="Icon_-_Profile_Background_Mask_" x="649.23" y="485.65" class="st0" width="153.67" height="153.67"/>
</g>
<g>
	<path d="M794.85,425.44c2.25,7.04-0.15,11.73-4.38,15.85c-4.98,4.85-10.91,8.13-17.42,10.4c-7.03,2.46-14.01,5.1-21.15,7.19
		c-19.45,5.71-35.86,16.51-50.87,29.74c-3.99,3.52-8.03,6.98-12.05,10.48c-0.32,0.28-0.67,0.54-0.95,0.86
		c-2.48,2.84-6.34,5.45-4.99,9.67c1.17,3.68,5.53,3.89,8.74,4.15c16.13,1.3,32.31,3.27,48.45,3.1c42.62-0.45,85.27-0.85,127.8-4.28
		c32.93-2.65,65.87-5.02,98.8-7.63c14.44-1.14,28.86-2.58,43.29-3.79c2.31-0.19,4.85-0.46,6.96,0.27
		c12.41,4.28,23.14,11.17,29.74,22.77c5.9,10.36,0.94,28.35-9.54,36.98c-6.36,5.24-13.66,8.78-21.79,10.17
		c-16.6,2.83-33.21,5.62-49.87,8c-21.5,3.07-43.06,5.8-64.61,8.49c-6.54,0.82-13.16,1.21-19.75,1.43
		c-30.89,1.04-61.8,1.74-92.68,2.97c-32.16,1.28-64.29,3.18-96.45,4.48c-11.27,0.45-22.58,0.1-33.86-0.21
		c-7.7-0.21-14.38-3.55-20.55-7.96c-1.21-0.86-2.43-1.71-3.96-2.78c-2.34,1.31-4.71,2.65-7.1,3.97c-8.52,4.69-17.62,7.21-27.37,7.46
		c-2.76,0.07-5.51,0.41-8.26,0.72c-6.51,0.74-10.81,3.84-12.96,10.42c-9.18,27.97-30.23,44.46-55.76,56.39
		c-7.25,3.39-14.97,4.88-23.03,4.22c-13-1.06-25.8-3.25-38.25-7.12c-2.91-0.9-5.57-2.58-8.35-3.9c0.11-0.55,0.23-1.09,0.34-1.64
		c2.63-0.04,5.26-0.11,7.88-0.13c33.44-0.15,63.16-11.08,89.3-31.55c6.3-4.93,11.7-11.15,16.89-17.29c4.31-5.1,5.23-10.7,0.64-16.84
		c-3.4-4.55-5.58-10.01-8.28-15.09c-2.75-5.17-3.28-10.46-1.06-16c0.87-2.16,1.27-4.51,2.08-6.7c1.38-3.77,4.36-4.49,7.28-1.58
		c2.41,2.4,4.48,5.13,6.7,7.72c2.35,2.75,5,5.31,6.99,8.3c3.75,5.65,9.17,7.2,15.45,7.11c1.06-0.02,2.13-0.08,3.19-0.17
		c20.09-1.61,19.88-1.91,33.13-16.71c1.12-1.25,2.01-2.71,3.28-4.43c1.29,1.43,1.99,1.91,2.3,2.57
		c6.13,13.45,17.02,19.07,31.32,18.73c9.58-0.22,19.15-0.88,28.73-1.31c18.31-0.82,36.62-1.66,54.93-2.41
		c31.52-1.29,63.09-1.84,94.56-3.97c29.13-1.97,58.17-5.37,87.2-8.55c25.62-2.8,51.19-6.12,76.77-9.32
		c6.42-0.8,12.04-3.77,17.6-6.72c-0.45-6.15-3.15-10.36-8.28-12.44c-4.68-1.9-9.61-3.89-14.55-4.3c-7.81-0.65-15.8-0.72-23.57,0.21
		c-27.54,3.28-55.12,5.45-82.84,6.67c-31.93,1.41-63.8,4.38-95.73,5.85c-34.09,1.57-68.22,1.53-102.28-0.92
		c-8.91-0.64-17.77-2.14-26.6-3.59c-3.52-0.58-7.07-1.73-10.3-3.27c-6.98-3.33-8.63-7.96-4.36-14.38
		c6.23-9.37,13.15-18.29,19.87-27.33c1.77-2.38,3.92-4.49,5.89-6.73c12.67-14.36,26.95-26.55,44.83-34.17
		c15.28-6.51,30.37-13.44,45.6-20.05c2.91-1.26,6.05-2.29,9.17-2.67C789.54,424.52,792.42,425.23,794.85,425.44z"/>
	<path d="M274.75,479.19c4.28,2.37,5.14,6.25,6.09,9.8c2.37,8.83,4.59,17.7,6.52,26.63c3.12,14.46,8.53,27.98,15.27,41.13
		c5.37,10.48,13.41,15.45,25.12,15.13c2.53-0.07,5.09,0.97,8.73,1.72c2.91-0.9,4.27-4.18,4.77-7.91c0.37-2.73,0.47-5.51,0.51-8.28
		c0.29-17.51,8.61-31.09,22.1-41.18c6.98-5.22,9.74-10.06,8.41-19.01c-3.45-23.14-6.45-46.28-14.44-68.46
		c-0.97-2.7-1.51-5.9-1.09-8.69c1.43-9.68,3.81-19.17,8.39-27.94c0.38-0.72,0.98-1.34,1.44-1.95c6.45,2.31,9.05,6.16,8.46,12.34
		c-0.04,0.42-0.16,0.84-0.21,1.26c-0.86,7.56-0.79,8.5,6.2,11.22c8.87,3.46,12.42,8.52,5.88,19.1c-4.94,7.99-6.36,15.67-4.74,24.72
		c3,16.72,5.24,33.58,8.02,50.35c1.14,6.84,5.1,12.08,10.89,15.87c4.81,3.15,9.58,6.39,14.59,9.2c7.67,4.31,11.87,10.87,13.17,19.31
		c1.67,10.86,0.09,21.2-5.99,30.59c-4.51,6.96-10.92,11.09-19.25,10.34c-9.5-0.85-18.97-2.41-28.35-4.24
		c-5.78-1.13-11.05-1.27-16.7,0.97c-9.92,3.93-20.22,6.35-31.11,6.03c-11.9-0.35-21.45-4.41-28.05-14.73
		c-3.64-5.7-7.82-11.05-12.09-17.03c-1.73,1.81-3.04,3.11-4.28,4.48c-17.17,18.88-38.98,25.96-63.86,24.28
		c-5.34-0.36-10.77-2.61-15.71-4.92c-6.83-3.19-8.3-7.74-5.59-14.71c1.19-3.08,2.88-5.96,4.48-9.22c3.38,1.17,6,1.94,8.53,2.97
		c8.95,3.62,18.15,4.6,27.56,2.41c8.49-1.98,17.02-3.88,25.31-6.51c4.16-1.32,8.08-3.84,11.67-6.42c5.33-3.83,7.35-9.2,5.53-15.74
		c-2.17-7.79-4.46-15.55-6.4-23.39c-1.68-6.8-3.32-13.65-4.3-20.58C269.3,491.48,271,485.18,274.75,479.19z M358.5,555.1
		c4.12,8.26,14.47,6,17.21,0.45c1.99-4.02,2.08-8.17,0.11-12.18c-2.6-5.29-7.08-5.95-11.18-1.65
		C361.02,545.5,359.41,550.26,358.5,555.1z M392.31,566.55c5,1.28,9.86,2.84,14.83,3.63c1.73,0.28,4.3-0.85,5.53-2.2
		c1.78-1.95,0.86-4.53-0.9-6.33c-1.92-1.96-4.03-3.77-6.23-5.42c-2.79-2.1-6.1-3.95-9.43-2.08c-3.12,1.75-4.06,5.28-4.14,8.82
		C391.95,563.99,392.16,565.03,392.31,566.55z"/>
	<path d="M54.65,543.16c2.78,2.91,2.12,4.87,0.95,7.17c-2.31,4.54-4.66,9.12-6.24,13.94c-1.38,4.18-2.24,8.68-2.42,13.08
		c-0.6,14.78,6.17,25.39,19.63,31.37c12.3,5.47,25.42,7.41,38.75,6.24c16-1.4,31.53-5.28,46.2-11.93c4.21-1.91,8.09-4.7,11.75-7.56
		c2.03-1.59,3.28-4.15,5.66-7.3c-6.86,0.64-12.26,1.35-17.68,1.6c-12.16,0.55-22.53-3.73-30.92-12.45
		c-4.39-4.56-5.87-10.27-4.85-16.54c0.24-1.47,0.49-2.95,0.95-4.36c6.51-19.91,16.35-37.86,31.44-52.65
		c4.75-4.66,10.08-8.49,16.62-10.39c9.06-2.63,21.49,2.83,25.46,11.3c0.53,1.14,0.89,2.41,1.07,3.65
		c0.69,4.71-2.23,13.39-6.27,18.13c-1.78-1.19-3.7-2.38-5.52-3.71c-2.06-1.51-3.91-3.32-6.03-4.71c-4.87-3.19-9.9-3.65-14.98-0.37
		c-10.92,7.04-19.88,16.06-26.6,27.12c-4.02,6.61-3.09,10.55,2.82,15.65c5.97,5.16,12.83,8.44,20.83,8.64
		c4.88,0.12,9.78-0.26,14.67-0.46c2.98-0.12,5.97-0.61,8.93-0.46c5.64,0.28,8.45,3.04,9.28,8.62c1.24,8.3-1.28,15.54-6.31,22.06
		c-5.68,7.37-12.92,12.94-20.87,17.61c-17.63,10.36-36.68,16.83-56.78,20.39c-13.25,2.35-26.28,1.59-39.11-2.51
		c-1.42-0.45-2.84-0.92-4.21-1.48c-26.65-10.95-37.3-37.26-25.35-63.48c2.79-6.13,6.67-11.84,10.55-17.39
		C48.31,548.75,51.59,546.23,54.65,543.16z"/>
	<path d="M465.86,595.69c-0.45-10.59-0.68-21.19-1.38-31.76c-1.75-26.73-3.72-53.45-5.58-80.18c-0.65-9.33-1.51-18.67-1.71-28.01
		c-0.08-3.71,1.06-7.56,2.19-11.17c2.03-6.43,3.65-13.11,7.97-18.48c5.27,1.47,6.43,2.99,6.42,7.23
		c-0.01,7.64-0.05,15.28,0.28,22.91c1.43,33.79,2.8,67.59,4.59,101.37c0.65,12.18-3.1,23.04-8,33.74c-0.83,1.81-2.25,3.36-3.4,5.03
		C466.77,596.14,466.31,595.92,465.86,595.69z"/>
	<path d="M544.36,524.63c-7.55-4.75-15.74-9.91-24.83-15.64c7.87-7.53,15.15-14.49,22.66-21.68c8.38,5.41,16.35,10.55,23.74,15.32
		C558.76,509.95,551.83,517.01,544.36,524.63z"/>
	<path d="M630.5,531.31c-5.83-4.46-11.03-8.44-16.9-12.93c4.06-5.69,7.93-11.11,12.22-17.13c6.05,4.48,11.62,8.62,17.92,13.29
		C639.37,520.09,635.22,525.34,630.5,531.31z"/>
	<path class="st1" d="M358.5,555.1c0.91-4.83,2.52-9.59,6.14-13.38c4.1-4.29,8.58-3.64,11.18,1.65c1.97,4.01,1.88,8.16-0.11,12.18
		C372.97,561.1,362.62,563.35,358.5,555.1z"/>
	<path class="st1" d="M392.31,566.55c-0.15-1.52-0.36-2.56-0.34-3.58c0.08-3.54,1.02-7.07,4.14-8.82c3.34-1.87,6.64-0.02,9.43,2.08
		c2.2,1.65,4.31,3.46,6.23,5.42c1.76,1.8,2.68,4.38,0.9,6.33c-1.23,1.35-3.8,2.48-5.53,2.2
		C402.16,569.39,397.31,567.83,392.31,566.55z"/>
</g>
</svg>
