<?xml version="1.0" encoding="utf-8"?>
<!-- Generator: Adobe Illustrator 27.3.1, SVG Export Plug-In . SVG Version: 6.00 Build 0)  -->
<svg version="1.1" id="Layer_1" xmlns="http://www.w3.org/2000/svg" xmlns:xlink="http://www.w3.org/1999/xlink" x="0px" y="0px"
	 viewBox="0 0 1080 1080" style="enable-background:new 0 0 1080 1080;" xml:space="preserve">
<style type="text/css">
	.st0{fill-rule:evenodd;clip-rule:evenodd;fill:#3E302F;}
</style>
<path id="Read-Quran" class="st0" d="M189.21,212.51c9.93-48.71,53.26-83.37,102.96-82.37c41.5-0.18,82.91,3.96,123.55,12.36h4.12
	c35.63,4.1,70.38,13.83,102.96,28.83c12.78,7.33,23.98,17.13,32.95,28.83c8.96-11.7,20.16-21.5,32.95-28.83
	c31.1-18.69,66.67-28.65,102.96-28.83h4.12c40.71-7.99,82.07-12.12,123.55-12.36c48.8,1.57,90.72,35.11,102.96,82.37h8.24
	c11.3,1.26,22.38,4.03,32.95,8.24c16.13,7.89,29.17,20.94,37.07,37.07c7.63,9.32,11.97,20.91,12.36,32.95v284.18
	c1.56,26.36-1.22,52.8-8.24,78.25c-7.5,19.61-20.34,36.73-37.07,49.42c-21.4,13.78-45.12,23.55-70.01,28.83h-4.12l-210.04,65.9
	c-27.57,11.35-56.76,18.3-86.49,20.59c-21.77,4.12-44.12,4.12-65.9,0c-29.38-4.31-58.32-11.2-86.49-20.59l-214.16-65.9h-4.12
	c-24.81-5.57-48.48-15.32-70.01-28.83c-16.73-12.69-29.57-29.81-37.07-49.42c-10.4-24.7-14.64-51.55-12.36-78.25V290.76
	c1.26-11.3,4.03-22.38,8.24-32.95c7.89-16.13,20.94-29.17,37.07-37.07c10.41-4.66,21.57-7.45,32.95-8.24H189.21z M510.45,278.41
	c8.24,12.36,8.24,28.83,8.24,82.37v259.46c-8.75-0.85-17.2-3.67-24.71-8.24c-58.7-18.28-119.74-27.99-181.21-28.83
	c-21.46,1.29-39.9-15.06-41.18-36.51c-0.09-1.56-0.09-3.12,0-4.67V233.11c-0.66-10.72,7.5-19.94,18.21-20.59
	c0.79-0.05,1.59-0.05,2.38,0c37.18,0.85,74.3,3.6,111.2,8.24c27.06,2.38,53.52,9.34,78.25,20.59
	C494.6,250.67,504.61,263.54,510.45,278.41z M609.3,278.41c-8.24,12.36-8.24,28.83-8.24,82.37v259.46
	c8.75-0.85,17.2-3.67,24.71-8.24c58.7-18.28,119.74-27.99,181.21-28.83c21.46,1.29,39.9-15.06,41.18-36.51
	c0.09-1.56,0.09-3.12,0-4.67V233.11c0.66-10.72-7.5-19.94-18.21-20.59c-0.79-0.05-1.59-0.05-2.38,0c-37.18,0.85-74.3,3.6-111.2,8.24
	c-27.06,2.38-53.52,9.34-78.25,20.59C625.15,250.67,615.14,263.54,609.3,278.41z M617.54,875.59c16.47,4.12,37.07,8.24,53.54,12.36
	l156.5,57.66c7.78,3.36,16.26,4.77,24.71,4.12c40.78,0.16,73.97-32.77,74.13-73.56c0-0.19,0-0.39,0-0.58v-90.61
	c-4.12,0-12.36,4.12-16.47,4.12s-4.12,0-8.24,4.12L691.67,855C667.53,863.76,642.74,870.65,617.54,875.59z M189.21,784.98v90.61
	c-0.16,40.78,32.77,73.97,73.56,74.13c0.19,0,0.39,0,0.58,0c8.45,0.65,16.93-0.76,24.71-4.12l156.5-57.66
	c16.47-4.12,37.07-8.24,53.54-12.36c-24.71-4.12-49.42-12.36-82.37-20.59l-210.04-61.78c-4.12,0-4.12,0-8.24-4.12
	C201.57,789.1,193.33,789.1,189.21,784.98z"/>
</svg>
